<svg xmlns="http://www.w3.org/2000/svg" style="display: none;">
  <!-- ==========================================
       ICONOS DE NAVEGACIÓN
       ========================================== -->
  
  <!-- Logo/Brand - Bolsa de dinero / Trading -->
  <symbol id="icon-logo" viewBox="0 0 24 24">
    <path d="M12 2v20M17 5H9.5a3.5 3.5 0 0 0 0 7h5a3.5 3.5 0 0 1 0 7H6"/>
  </symbol>
  
  <!-- Refresh - Flechas circulares -->
  <symbol id="icon-refresh" viewBox="0 0 24 24">
    <path d="M21 2v6h-6"/>
    <path d="M3 12a9 9 0 0 1 15-6.7L21 8"/>
    <path d="M3 22v-6h6"/>
    <path d="M21 12a9 9 0 0 1-15 6.7L3 16"/>
  </symbol>
  
  <!-- Settings - Engranaje -->
  <symbol id="icon-settings" viewBox="0 0 24 24">
    <circle cx="12" cy="12" r="3"/>
    <path d="M19.4 15a1.65 1.65 0 0 0 .33 1.82l.06.06a2 2 0 0 1 0 2.83 2 2 0 0 1-2.83 0l-.06-.06a1.65 1.65 0 0 0-1.82-.33 1.65 1.65 0 0 0-1 1.51V21a2 2 0 0 1-2 2 2 2 0 0 1-2-2v-.09A1.65 1.65 0 0 0 9 19.4a1.65 1.65 0 0 0-1.82.33l-.06.06a2 2 0 0 1-2.83 0 2 2 0 0 1 0-2.83l.06-.06a1.65 1.65 0 0 0 .33-1.82 1.65 1.65 0 0 0-1.51-1H3a2 2 0 0 1-2-2 2 2 0 0 1 2-2h.09A1.65 1.65 0 0 0 4.6 9a1.65 1.65 0 0 0-.33-1.82l-.06-.06a2 2 0 0 1 0-2.83 2 2 0 0 1 2.83 0l.06.06a1.65 1.65 0 0 0 1.82.33H9a1.65 1.65 0 0 0 1-1.51V3a2 2 0 0 1 2-2 2 2 0 0 1 2 2v.09a1.65 1.65 0 0 0 1 1.51 1.65 1.65 0 0 0 1.82-.33l.06-.06a2 2 0 0 1 2.83 0 2 2 0 0 1 0 2.83l-.06.06a1.65 1.65 0 0 0-.33 1.82V9a1.65 1.65 0 0 0 1.51 1H21a2 2 0 0 1 2 2 2 2 0 0 1-2 2h-.09a1.65 1.65 0 0 0-1.51 1z"/>
  </symbol>
  
  <!-- Close - X -->
  <symbol id="icon-close" viewBox="0 0 24 24">
    <line x1="18" y1="6" x2="6" y2="18"/>
    <line x1="6" y1="6" x2="18" y2="18"/>
  </symbol>

  <!-- ==========================================
       ICONOS DE OPERACIONES
       ========================================== -->
  
  <!-- Arbitraje Fiat - Rayo/Flecha circular -->
  <symbol id="icon-arbitrage" viewBox="0 0 24 24">
    <polygon points="13 2 3 14 12 14 11 22 21 10 12 10 13 2"/>
  </symbol>
  
  <!-- Crypto Arbitraje - Moneda con símbolo -->
  <symbol id="icon-crypto" viewBox="0 0 24 24">
    <circle cx="12" cy="12" r="10"/>
    <path d="M12 6v12M8 10h6a2 2 0 0 1 0 4h-2M10 14h4a2 2 0 0 1 0 4H8"/>
  </symbol>
  
  <!-- P2P - Dos personas/Handshake -->
  <symbol id="icon-p2p" viewBox="0 0 24 24">
    <path d="M17 21v-2a4 4 0 0 0-4-4H5a4 4 0 0 0-4 4v2"/>
    <circle cx="9" cy="7" r="4"/>
    <path d="M23 21v-2a4 4 0 0 0-3-3.87M16 3.13a4 4 0 0 1 0 7.75"/>
  </symbol>
  
  <!-- Simulador - Gráfico de barras/Calculadora -->
  <symbol id="icon-simulator" viewBox="0 0 24 24">
    <rect x="3" y="3" width="18" height="18" rx="2" ry="2"/>
    <line x1="3" y1="9" x2="21" y2="9"/>
    <line x1="9" y1="21" x2="9" y2="9"/>
  </symbol>
  
  <!-- Exchanges - Edificio banco -->
  <symbol id="icon-exchange" viewBox="0 0 24 24">
    <rect x="4" y="2" width="16" height="20" rx="2" ry="2"/>
    <path d="M9 22v-4h6v4"/>
    <path d="M8 6h.01M8 10h.01M8 14h.01M16 6h.01M16 10h.01M16 14h.01"/>
  </symbol>
  
  <!-- Guía - Lista/Documentos -->
  <symbol id="icon-guide" viewBox="0 0 24 24">
    <line x1="8" y1="6" x2="21" y2="6"/>
    <line x1="8" y1="12" x2="21" y2="12"/>
    <line x1="8" y1="18" x2="21" y2="18"/>
    <line x1="3" y1="6" x2="3.01" y2="6"/>
    <line x1="3" y1="12" x2="3.01" y2="12"/>
    <line x1="3" y1="18" x2="3.01" y2="18"/>
  </symbol>

  <!-- ==========================================
       ICONOS DE INFORMACIÓN
       ========================================== -->
  
  <!-- Info - Círculo con i -->
  <symbol id="icon-info" viewBox="0 0 24 24">
    <circle cx="12" cy="12" r="10"/>
    <line x1="12" y1="16" x2="12" y2="12"/>
    <line x1="12" y1="8" x2="12.01" y2="8"/>
  </symbol>
  
  <!-- Warning - Triángulo -->
  <symbol id="icon-warning" viewBox="0 0 24 24">
    <path d="M10.29 3.86L1.82 18a2 2 0 0 0 1.71 3h16.94a2 2 0 0 0 1.71-3L13.71 3.86a2 2 0 0 0-3.42 0z"/>
    <line x1="12" y1="9" x2="12" y2="13"/>
    <line x1="12" y1="17" x2="12.01" y2="17"/>
  </symbol>
  
  <!-- Success - Check -->
  <symbol id="icon-success" viewBox="0 0 24 24">
    <polyline points="20 6 9 17 4 12"/>
  </symbol>
  
  <!-- Error - X en círculo -->
  <symbol id="icon-error" viewBox="0 0 24 24">
    <circle cx="12" cy="12" r="10"/>
    <line x1="15" y1="9" x2="9" y2="15"/>
    <line x1="9" y1="9" x2="15" y2="15"/>
  </symbol>
  
  <!-- Question - Signo ? -->
  <symbol id="icon-question" viewBox="0 0 24 24">
    <circle cx="12" cy="12" r="10"/>
    <path d="M9.09 9a3 3 0 0 1 5.83 1c0 2-3 3-3 3"/>
    <line x1="12" y1="17" x2="12.01" y2="17"/>
  </symbol>
  
  <!-- Sparkle/Star - Para actualizaciones -->
  <symbol id="icon-sparkle" viewBox="0 0 24 24">
    <polygon points="12 2 15.09 8.26 22 9.27 17 14.14 18.18 21.02 12 17.77 5.82 21.02 7 14.14 2 9.27 8.91 8.26 12 2"/>
  </symbol>

  <!-- ==========================================
       ICONOS DE FILTROS
       ========================================== -->
  
  <!-- Filter - Embudo -->
  <symbol id="icon-filter" viewBox="0 0 24 24">
    <polygon points="22 3 2 3 10 12.46 10 19 14 21 14 12.46 22 3"/>
  </symbol>
  
  <!-- Bolt/Flash - Para filtros rápidos -->
  <symbol id="icon-bolt" viewBox="0 0 24 24">
    <polygon points="13 2 3 14 12 14 11 22 21 10 12 10 13 2"/>
  </symbol>
  
  <!-- Target - Para "todos" -->
  <symbol id="icon-target" viewBox="0 0 24 24">
    <circle cx="12" cy="12" r="10"/>
    <circle cx="12" cy="12" r="6"/>
    <circle cx="12" cy="12" r="2"/>
  </symbol>
  
  <!-- Reset - Flecha circular -->
  <symbol id="icon-reset" viewBox="0 0 24 24">
    <path d="M3 12a9 9 0 0 1 9-9 9.75 9.75 0 0 1 6.74 2.74L21 8"/>
    <path d="M21 3v5h-5"/>
    <path d="M21 12a9 9 0 0 1-9 9 9.75 9.75 0 0 1-6.74-2.74L3 16"/>
    <path d="M8 16H3v5"/>
  </symbol>

  <!-- ==========================================
       ICONOS DE INFORMACIÓN FINANCIERA
       ========================================== -->
  
  <!-- Dollar/Currency - Moneda -->
  <symbol id="icon-dollar" viewBox="0 0 24 24">
    <line x1="12" y1="1" x2="12" y2="23"/>
    <path d="M17 5H9.5a3.5 3.5 0 0 0 0 7h5a3.5 3.5 0 0 1 0 7H6"/>
  </symbol>
  
  <!-- Coins/Money - Variante con múltiples monedas -->
  <symbol id="icon-coins" viewBox="0 0 24 24">
    <circle cx="8" cy="8" r="6"/>
    <path d="M18.09 10.37A6 6 0 1 1 10.34 18"/>
    <path d="M7 6h1v4M7 10h1M16.5 13h1v4M16.5 17h1"/>
  </symbol>
  
  <!-- Percent - Porcentaje -->
  <symbol id="icon-percent" viewBox="0 0 24 24">
    <line x1="19" y1="5" x2="5" y2="19"/>
    <circle cx="6.5" cy="6.5" r="2.5"/>
    <circle cx="17.5" cy="17.5" r="2.5"/>
  </symbol>
  
  <!-- Clock - Tiempo -->
  <symbol id="icon-clock" viewBox="0 0 24 24">
    <circle cx="12" cy="12" r="10"/>
    <polyline points="12 6 12 12 16 14"/>
  </symbol>
  
  <!-- Chart - Gráfico de barras -->
  <symbol id="icon-chart" viewBox="0 0 24 24">
    <line x1="18" y1="20" x2="18" y2="10"/>
    <line x1="12" y1="20" x2="12" y2="4"/>
    <line x1="6" y1="20" x2="6" y2="14"/>
  </symbol>
  
  <!-- Trend Chart - Gráfico de líneas -->
  <symbol id="icon-trend" viewBox="0 0 24 24">
    <polyline points="23 6 13.5 15.5 8.5 10.5 1 18"/>
    <polyline points="17 6 23 6 23 12"/>
  </symbol>

  <!-- ==========================================
       ICONOS DE CRIPTOMONEDAS
       ========================================== -->
  
  <!-- USDT - Tether T -->
  <symbol id="icon-usdt" viewBox="0 0 24 24">
    <circle cx="12" cy="12" r="10"/>
    <path d="M12 7v10M8 10h8M8 14h8"/>
  </symbol>
  
  <!-- BTC - Bitcoin B -->
  <symbol id="icon-btc" viewBox="0 0 24 24">
    <path d="M11.767 19.089c4.924.868 6.14-6.025 1.216-6.894m-1.216 6.894L5.86 18.047m5.908 1.042-.347 1.97m1.563-8.864c4.924.869 6.14-6.025 1.215-6.893m-1.215 6.893-3.94-.694m5.155-6.893c4.924.869 6.14-6.025 1.215-6.893m-1.215 6.893L6.598 4.5m5.908 1.042-.347 1.97"/>
  </symbol>
  
  <!-- ETH - Ethereum -->
  <symbol id="icon-eth" viewBox="0 0 24 24">
    <polygon points="12 2 2 12 12 22 22 12 12 2"/>
    <polygon points="12 12 2 12 12 22 22 12 12 12"/>
  </symbol>
  
  <!-- USDC - USD Coin -->
  <symbol id="icon-usdc" viewBox="0 0 24 24">
    <circle cx="12" cy="12" r="10"/>
    <circle cx="12" cy="12" r="6"/>
    <path d="M12 8v8M9 11h6M9 13h6"/>
  </symbol>
  
  <!-- DAI - Diamante -->
  <symbol id="icon-dai" viewBox="0 0 24 24">
    <path d="M6 3h12l4 6-10 13L2 9l4-6z"/>
    <path d="M12 22V9"/>
  </symbol>

  <!-- ==========================================
       FLECHAS Y NAVEGACIÓN
       ========================================== -->
  
  <!-- Arrow Right -->
  <symbol id="icon-arrow-right" viewBox="0 0 24 24">
    <line x1="5" y1="12" x2="19" y2="12"/>
    <polyline points="12 5 19 12 12 19"/>
  </symbol>
  
  <!-- Arrow Left -->
  <symbol id="icon-arrow-left" viewBox="0 0 24 24">
    <line x1="19" y1="12" x2="5" y2="12"/>
    <polyline points="12 19 5 12 12 5"/>
  </symbol>
  
  <!-- Arrow Up -->
  <symbol id="icon-arrow-up" viewBox="0 0 24 24">
    <line x1="12" y1="19" x2="12" y2="5"/>
    <polyline points="5 12 12 5 19 12"/>
  </symbol>
  
  <!-- Arrow Down -->
  <symbol id="icon-arrow-down" viewBox="0 0 24 24">
    <line x1="12" y1="5" x2="12" y2="19"/>
    <polyline points="19 12 12 19 5 12"/>
  </symbol>
  
  <!-- Chevron Right -->
  <symbol id="icon-chevron-right" viewBox="0 0 24 24">
    <polyline points="9 18 15 12 9 6"/>
  </symbol>
  
  <!-- Chevron Down -->
  <symbol id="icon-chevron-down" viewBox="0 0 24 24">
    <polyline points="6 9 12 15 18 9"/>
  </symbol>
</svg>
